<svg width="79" height="88" viewBox="0 0 79 88" fill="none" xmlns="http://www.w3.org/2000/svg">
<g filter="url(#filter0_d_4_19)">
<path d="M10.6385 40.2913C11.5229 47.0915 14.7796 53.3612 19.8345 57.9951C24.8893 62.6291 31.4178 65.3298 38.2691 65.6211C38.2691 57.3795 35.6259 50.389 30.6435 45.405C25.661 40.421 18.6705 37.7857 10.4289 37.7793H4V40.2448H10.6385C10.6353 40.2593 10.6353 40.2753 10.6385 40.2913Z" fill="white" fill-opacity="0.25"/>
<path d="M38.2636 7.7232V0H35.8027V7.68002C28.9936 8.55316 22.7123 11.8052 18.0688 16.8612C13.4252 21.9173 10.7183 28.4521 10.4265 35.3108C18.6683 35.3108 25.6586 32.6674 30.6426 27.685C35.5755 22.7538 38.2044 15.8546 38.2636 7.7232Z" fill="white" fill-opacity="0.25"/>
<path d="M68.3647 32.8466C68.3536 32.7618 68.3472 32.677 68.336 32.5922C67.4078 25.8344 64.1357 19.6174 59.0909 15.0261C54.0462 10.4349 47.5492 7.76138 40.7341 7.47198C40.7341 15.7137 43.3773 22.704 48.3598 27.688C53.3422 32.6722 60.3279 35.3058 68.5663 35.3138H74.4352V32.8466H68.3647Z" fill="white" fill-opacity="0.5"/>
<path d="M43.365 71.1447V65.3847C50.1394 64.4752 56.3778 61.2107 60.9868 56.1631C65.5959 51.1155 68.2816 44.607 68.5732 37.778C60.3315 37.778 53.341 40.4212 48.357 45.4052C43.373 50.3894 40.7329 57.3782 40.7329 65.6199H40.8929H40.7329V71.3448C40.3233 71.3608 39.9122 71.3719 39.4993 71.3719C34.5305 71.3875 29.6255 70.2516 25.1694 68.0532C20.7133 65.8549 16.8271 62.6538 13.8159 58.7014L6.97266 63.9574C10.8006 68.9472 15.7252 72.9894 21.3655 75.7712C27.0058 78.5532 33.2104 80 39.4993 80C45.7883 80 51.993 78.5532 57.6333 75.7712C63.2735 72.9894 68.198 68.9472 72.026 63.9574L65.1827 58.7014C62.568 62.1342 59.2885 65.0053 55.5401 67.1432C51.7915 69.2811 47.6508 70.6419 43.365 71.1447Z" fill="white" fill-opacity="0.25"/>
</g>
<defs>
<filter id="filter0_d_4_19" x="0" y="0" width="78.4353" height="88" filterUnits="userSpaceOnUse" color-interpolation-filters="sRGB">
<feFlood flood-opacity="0" result="BackgroundImageFix"/>
<feColorMatrix in="SourceAlpha" type="matrix" values="0 0 0 0 0 0 0 0 0 0 0 0 0 0 0 0 0 0 127 0" result="hardAlpha"/>
<feOffset dy="4"/>
<feGaussianBlur stdDeviation="2"/>
<feComposite in2="hardAlpha" operator="out"/>
<feColorMatrix type="matrix" values="0 0 0 0 0 0 0 0 0 0 0 0 0 0 0 0 0 0 0.25 0"/>
<feBlend mode="normal" in2="BackgroundImageFix" result="effect1_dropShadow_4_19"/>
<feBlend mode="normal" in="SourceGraphic" in2="effect1_dropShadow_4_19" result="shape"/>
</filter>
</defs>
</svg>
