<svg width="40" height="40" viewBox="0 0 40 40" fill="none" xmlns="http://www.w3.org/2000/svg">
<path d="M19.579 19.556C22.2178 19.556 24.357 17.4168 24.357 14.778C24.357 12.1392 22.2178 10 19.579 10C16.9402 10 14.801 12.1392 14.801 14.778C14.801 17.4168 16.9402 19.556 19.579 19.556Z" stroke="#2D59B3" stroke-width="2" stroke-linecap="round" stroke-linejoin="round"/>
<path d="M12 26.1961C11.9988 25.8602 12.074 25.5286 12.22 25.2261C12.5521 24.7756 12.9742 24.399 13.4594 24.1201C13.9447 23.8413 14.4826 23.6663 15.039 23.6061C15.8113 23.442 16.5943 23.3331 17.382 23.2801C18.8409 23.1521 20.3082 23.1521 21.767 23.2801C22.5548 23.3354 23.3376 23.4457 24.11 23.6101C25.181 23.8301 26.472 24.2691 26.929 25.2301C27.0737 25.5347 27.1488 25.8678 27.1488 26.2051C27.1488 26.5424 27.0737 26.8754 26.929 27.1801C26.471 28.1411 25.181 28.5801 24.11 28.7911C23.3386 28.9629 22.5555 29.0762 21.767 29.1301C20.5806 29.2293 19.3888 29.246 18.2 29.1801C17.9272 29.1893 17.6541 29.1709 17.385 29.1251C16.5995 29.0718 15.8192 28.9585 15.051 28.7861C14.4907 28.7405 13.9471 28.5731 13.4581 28.2957C12.9692 28.0184 12.5466 27.6376 12.22 27.1801C12.0741 26.8726 11.9989 26.5364 12 26.1961Z" stroke="#2D59B3" stroke-width="2" stroke-linecap="round" stroke-linejoin="round"/>
</svg>
