<svg width="26" height="25" viewBox="0 0 26 25" fill="none" xmlns="http://www.w3.org/2000/svg">
<path d="M11.099 24.7088C11.099 24.7094 11.0985 24.7098 11.0979 24.7098C6.27362 24.7098 3.77986 24.6267 2.29897 23.0098C0.771966 21.3408 0.771973 18.4268 0.771973 12.6178C0.771973 0.980798 1.22396 0.528809 12.861 0.528809C24.498 0.528809 24.953 0.980798 24.953 12.6178C24.953 24.2548 24.501 24.7078 12.861 24.7078H11.1C11.0994 24.7078 11.099 24.7082 11.099 24.7088ZM12.861 2.4743C12.861 2.47403 12.8607 2.47382 12.8605 2.47382C7.74578 2.47382 4.92592 2.47383 3.82196 3.57379C2.71796 4.67379 2.72197 7.49779 2.72197 12.6128C2.72197 17.7508 2.72196 20.5808 3.73796 21.6918C4.72096 22.7648 7.29097 22.7558 11.924 22.7598H12.866C17.984 22.7598 20.803 22.7598 21.908 21.6598C23.013 20.5598 23.008 17.7358 23.008 12.6188C23.008 7.5018 23.008 4.6838 21.908 3.5798C20.808 2.47584 17.9791 2.47479 12.8615 2.47479C12.8612 2.47479 12.861 2.47457 12.861 2.4743Z" fill="white" stroke="white" stroke-width="0.2"/>
<path d="M19.843 7.05178C20.4588 7.05178 20.958 6.55257 20.958 5.93678C20.958 5.32098 20.4588 4.82178 19.843 4.82178C19.2272 4.82178 18.728 5.32098 18.728 5.93678C18.728 6.55257 19.2272 7.05178 19.843 7.05178Z" fill="white"/>
<mask id="path-3-inside-1_1_1385" fill="white">
<path d="M19 13C19 16.3137 16.3137 19 13 19C9.68629 19 7 16.3137 7 13C7 9.68629 9.68629 7 13 7C16.3137 7 19 9.68629 19 13Z"/>
</mask>
<path d="M17 13C17 15.2091 15.2091 17 13 17V21C17.4183 21 21 17.4183 21 13H17ZM13 17C10.7909 17 9 15.2091 9 13H5C5 17.4183 8.58172 21 13 21V17ZM9 13C9 10.7909 10.7909 9 13 9V5C8.58172 5 5 8.58172 5 13H9ZM13 9C15.2091 9 17 10.7909 17 13H21C21 8.58172 17.4183 5 13 5V9Z" fill="white" mask="url(#path-3-inside-1_1_1385)"/>
</svg>
